<svg width="160" height="68" fill="none" xmlns="http://www.w3.org/2000/svg"><g clip-path="url(#a)" fill-rule="evenodd" clip-rule="evenodd" fill="#0B0500"><path d="M26.268 23.642c.158-.078.315-.158.394-.237.553-.158.79-.87 1.42-.79.552-.632 1.341-.711 1.972-1.265 0-.079.08-.158.237-.315.394-.317-.316-.554-.316-.554-.158-.237-.474 0-.474 0-.158.08-.316.237-.473.237-.08.317-.395.317-.631.475-.316.316-.71.553-1.105.79-.316.395-.789.474-1.104.79 0 0-.395.237-.553.632 0 0-.788.712.237.317l.394-.08h.002zM25.321 24.749c0 .079-.078.079-.078.079v.08c-.552.394-.868.869-1.183 1.343-.395.553-.71 1.106-1.341 1.501-.474 0-.71.474-1.105.633-.079 0-.158-.159-.158-.238 0 0-.236-.474-.158-.87.237-.078.474-.157.631-.315l.71-.712c.79-.632 1.5-1.422 2.21-2.054 0 0 .552-.317.472.553zM25.163 23.169c-.867.316-1.893.316-2.524.948-.315.237-.868-.079-1.025.316.08.079 0 .237 0 .317h-.316l.08.632c.788.079 1.183-.87 1.893-.949l.078.079v.237c-.078.079-.236-.158-.394 0-.394.395-.868.711-1.34.87-.08.078-.08.315-.237.315l-.08.87c.395.08.71-.237 1.026-.553.079-.08.157-.08.236-.159.71-.79 1.736-1.422 2.288-2.37 0 0 .237.158.316-.553zM42.754 23.01c.08 1.107-.394 1.897-1.183 2.766-.71.158-1.499.712-2.287.237-.474-.237-1.105.079-1.42-.475-.158-.078-.394-.078-.474-.236.079-.237.395-.317.553-.475.946.158 2.05.87 2.84.08.315-.159.867-.238.867-.712.08-.316.08-.632.395-.79.236 0 .315-.395.394-.632 0 0 0-.87.316-.712 0 0 .236.317 0 .553v.396zM36.128 18.663c-.316.237-.63.475-.71.632-1.183.395-2.446.632-3.55.08-.157-.238.237-.317 0-.633.08-.08.158-.158.316-.08.158.396.63.159.946.238.473.158.868-.159 1.263-.08.315-.158.473-.158.788-.316h.158s.947-.632.79.158v.001zM60.108 17.162c-.552-.474-.946.159-.946.159-.158.158-.316.315-.395.473-.71.317-1.025 1.265-1.735 1.58-.394.396-.946.712-1.42 1.186-.946.317-2.13.395-3.076.87-.71.237-1.499.395-2.208.632-.868.632-1.894.79-2.682 1.343-.158.159-.474.237-.395.475.08.237.395.079.552.158.158.158.553.079.553.395-.237.158-.631.158-.553.475.316.237.71.395 1.026.553.473.316 1.025.632 1.499.79.867.395 1.814.712 2.682 1.107.71.158 1.498.237 2.13.553.788.237 1.656.553 2.523.712.553.236.08.711.158 1.106 0 .237-.236.475-.157.712-.395.632-.395 1.422-.395 2.213-.158.078-.078.237 0 .395-.158.395-.315.87-.394 1.343-.079 0-.079.08-.158.08-.079.71-.079 1.185-.158 1.817.394.158.868.079 1.262-.08-.236-.474.158-.869.08-1.422.157-.236.078-.553.157-.87.395-1.184.395-2.45.474-3.713 0-.159-.158-.317.079-.475l.158.079c-.08.474.078.948 0 1.343.236.87 0 1.818.157 2.766.553.317-.236.949.395 1.265-.079.237.079.475.236.553.237.08.553-.078.868-.395.08-.87-.394-1.422-.394-2.213-.237-.553-.079-1.027-.395-1.502 0-.474-.236-.948-.236-1.422-.236-.158-.158-.632-.158-.87-.079-.474 0-1.185-.63-1.422-1.026-.08-2.052-.553-3.077-.79-.631-.158-1.262-.474-1.893-.632l-.71-.237c-.553-.158-1.184-.237-1.736-.553-.08-.08-.236-.08-.394-.159 0 0-.079 0-.079-.078-.236-.08-1.578-.475-1.735-.633-.237-.395.157-.395.157-.395.08 0 1.184.554 1.263.554.236 0 .316.158.474.158.236.079.394.158.63.158.79.474 1.657.711 2.446.948.236.08.552.159.789.237.078.159.315.159.473.237.473.159 1.105.159 1.578.475.315-.158.552.237.788.237.553.316 1.184.079 1.657.474.395.632.237 1.423.552 2.134-.236.474.553.712.237 1.185.158.316.316.712.63.79.237.08.395 0 .553-.158 0-.395-.236-.632-.316-.948.08-.553-.394-1.027-.315-1.58-.079-.317-.158-.79-.474-1.107-.236-.316-.63-.711-.394-1.185-.079-.159-.316 0-.473-.08-.395-.237-.947-.316-1.42-.395-.395-.237-.79-.395-1.263-.553-.473-.08-.947-.158-1.34-.237v-.08c-.474.238-.869-.395-1.342-.474-.316-.237-.868 0-1.183-.316-.316 0-.63-.08-.868-.237-.316 0-.868.08-1.025-.316-.316-.158-.71-.158-1.026-.237-.157 0-.236-.079-.315-.079 0-.08-.158-.08-.237-.08-.236 0-.552-.157-.473-.236.079-.08.631-.237.71-.237.08 0 .158-.08.237-.08 1.104-.474 2.287-.79 3.392-1.343.789.08 1.577-.316 2.366-.316.947-.632 1.656-1.738 2.604-2.134.473-.395.788-1.343 1.42-1.027.236-.08.394.08.63.08.158-.238.474-.475.395-.791.078-.237-.395-.712-.395-.712h-.002zM58.846 4.438c.08 0 .08.08.08.237 0 .949.078 2.055.394 3.004.315 1.264.552 2.45.868 3.793.078.554-.868.633-.631 1.186.079.553-.237.711-.553 1.106 0 0 .316.159.474.317 0 0 .237.553.868.316 0 0 .552-.158.474-.632 0-.395.078-.87.315-1.186-.158-.316.08-.71-.158-1.027.08-.711-.315-1.343-.473-2.055 0-.474-.237-.87-.158-1.264a25.787 25.787 0 0 1-.71-3.557l.158-.236c.394-.08.473.474.789.553.157.553.788.79 1.025 1.265.947.87 1.735 1.738 2.445 2.687 1.026.948 1.972 1.738 2.761 2.845.315.237.71 0 1.025.237.473-.316 1.42-.079 1.341-.949.08-.158.237-.158.395-.158.394.237.868 0 1.262-.158 1.025 0 2.05-.237 2.998-.474.236 0 .315-.158.236-.395-.078-.158-.157-.237-.394-.237-.947.237-1.972.632-3.076.553l-.08-.079c.08-.316.553-.079.79-.316.552 0 1.42-.158 2.05-.395.474-.474 1.184.316 1.42-.474.158-.317 1.184-.317.71-.79-.315-.08-.63-.159-.788.236-.631-.158-.947.475-1.578.475 0 0-.079-.08-.079-.158.71-.396 1.578-.554 2.288-1.107.079-.079 0-.237-.158-.237-1.105.316-2.05.87-3.076 1.265-.316.158-.553.553-.947.553-.552.316-1.262.395-1.736.948-.315.08-.552-.079-.788.08-.316-.159-.631-.396-.79-.712-1.024-1.107-2.365-2.055-3.47-3.24-.947-.712-1.972-1.423-2.76-2.371l-.631-.474c-.158 0-.474 0-.631.237v.079h-.474c-.079-.08-.158-.08-.236-.159 0 0-.237.08-.474 0 0 0-.394-.158-.237.317 0 0 .08.316-.079.553v-.002zm8.677 6.481c-.236.08-.158-.158-.316-.237-.71-.474-1.262-1.264-1.814-1.817-.315-.237-.552-.632-.946-.87-1.026-.79-1.894-1.976-2.84-2.766-.237-.316-.552-.711-.868-.948-.079-.079 0-.237.079-.316.158 0 .394.079.315.237.789 1.107 1.893 1.502 2.84 2.924.237 0 .158.079.237.237 1.104 1.107 2.366 2.213 3.55 3.32 0 .157-.158.157-.237.236z"/><path d="M49.144 7.757c.473-.158 1.183-.711 1.577-.078l.079-.08c.158 0 .158.237.237.317.078.079.078-.08.157-.08 0-.316.237-.474.473-.71.395-.159.79-.396 1.263-.475-.08-.237-.158-.317-.316-.395 0 .078-.158.158-.158.158-.473.079-.63.632-1.104.553l-.08-.237c.474-.316.631-.79.79-1.185-.159-.317-.553 0-.79-.08-.236-.316-.63-.395-1.104-.316-.394-.474-.789-1.106-1.42-1.106-.236-.237-.394-.475-.394-.79.158-.396.473.078.71.078 1.262.395 2.366 1.58 3.787 1.66.236.553.868.474 1.34.553.316.395.869.237 1.342.237.63.317 1.42.158 2.05.395.159.158.159.632.474.475.158.553.553.87.71 1.343.553.395.316 1.107.395 1.66.079.316-.079.632.236.948 0 .553-.315 1.107-.867 1.422-.237.554-1.025.317-1.499.554-.394.315-.789.395-1.104.79-.237.474-.631 1.027-.474 1.58 0 .396-.079.712-.158 1.028-.078.474-.236.87-.236 1.343-.158.474 0 1.186-.631 1.344-.158-.08-.395-.08-.316-.317-.315-.158 0-.553-.315-.711l.158-1.027c.079-.237.157-.395.236-.632.237-.87.316-1.818.947-2.53 0-.236-.237-.236-.395-.236l-1.34 1.027c-.395.474-.474 1.107-.553 1.739-.158.553-.236 1.027-.63 1.422-.08.632.314 1.343 0 1.897-.237.079-.553.316-.79.079-.473-1.028-.078-2.213.316-3.083.079-.079.158-.237.237-.316.316-.632.316-1.58 1.104-1.897 0-.079 0-.237-.078-.316l-.553.316c-.236.158-.473.08-.71.237-.316.553-.71 1.027-.868 1.66-.71.949-.473 2.45-.788 3.636l-.316.315c-.158.08-.394.08-.473-.078-.237-.712.078-1.423.078-2.134.08-.553.158-1.107.553-1.502v-.237c.078-.553.71-.948 1.025-1.422l-.079-.237c-.236 0-.236.237-.394.395-.474.316-.789.79-1.105 1.265-.158.237-.315.474-.473.632-.473.632-.552 1.343-.788 2.055-.316.553.079 1.264-.395 1.66a1.095 1.095 0 0 1-.71 0c-.158-.317 0-.712.079-.949.158-.553.079-1.265.158-1.738.315-.554.71-1.107 1.183-1.66l.71-.711v-.317c-.237-.078-.395.159-.552.317-.158.237-.395.474-.553.711-1.104 1.264-2.287 2.608-1.972 4.505-.237.237-.552.237-.789.316-.316-.079-.316-.474-.394-.711.316-.79.078-1.818.868-2.371-.08-.712.71-.949.946-1.502.158 0 .158-.158.316-.237 0 0 .079-.08.158 0 0-.316.158-.553.236-.79-.078-.079-.078-.237-.236-.158a6.216 6.216 0 0 0-1.183.948c-.868.949-1.5 2.213-1.814 3.399-.158.474-.158 1.106-.474 1.501-.316 0-.63 0-.789-.158-.157-1.106.395-1.897.71-2.845.158-.237-.079-.632.158-.79.395-.395.631-.712.868-1.107.316-.316.947-.237 1.026-.711 0-.475-.79-.237-.79-.237-.157.158-.551.079-.551.079-.158-.08-.316 0-.316 0-.237.237-.868.316-1.183.395-.079.079-.158.158-.395.474-.236.395-.473.87-.236 1.344-.079.632-.158 1.185-.158 1.817.158.395.236.949.236 1.422v.554l.395.158s-.237.158-.316.553c-.236.317-.315.79-.473 1.107a1.89 1.89 0 0 0-.474.87c0 .71-.867.71-1.34.948-.79-.158-1.5-.158-2.209-.395-.394-.395-.947-.316-1.42-.554-.946-.078-1.656-.87-2.445-1.343-.71-.395-1.42-.79-2.13-1.344-.236-.158-.552-.237-.868-.316h-.08c-.473-.948-1.34-.711-1.34-.711-.08.079-.158.079-.237.158-.552.474-1.262.632-1.972.87-.157.079-.394.157-.552-.08.079-.553.552-1.027.789-1.58 1.42-.553 2.919.158 4.18.79.553.395 1.105.87 1.736 1.027.868.554 1.736 1.265 2.682 1.74.553 0 1.026.236 1.5.474.394.158.946.078 1.419.315.236 0 .552.159.71-.158.394-.711 1.341-.948 1.262-1.897.79-.948-.078-2.055 0-3.16.237-.238.237-.712.158-1.028.158-.553.237-1.027.395-1.58.079-.158.552-.554.394-.79-.474-.237-.71.79-1.105.632-.394-.159.237-.475-.157-.712 0 0-.631.632-.947.87-.079.078-.079.158-.079.158h-.315c-.474.553-1.184.553-1.578 1.265-.316 0-.552.078-.789.237-.315.236-1.104.236-1.104.236-.474 0-.789.316-.789.316-.236.08-.473.159-.789.159-.552.395-1.262.158-1.893.158-.316 0-.079-.554-.474-.633-.236-.632-.473-1.264-.63-1.896-.08-.317-.08-.554-.158-.87-.631-.87-.158-2.134-.947-2.924-.316-.079-.474-.474-.552-.79-.395-.317-.315-.87-.71-1.107-.237-.711-.71-1.185-1.026-1.818l-.157-.079c-.553.317-.316 1.028-.474 1.581-.237.316 0 .711 0 1.106-.079 1.107-.394 2.134-.552 3.24-.237.475-.08 1.186-.316 1.66-.079.08-.158.238-.237.317-.236.079-.473 0-.552-.158v-.158c.158-1.027.237-2.055.237-3.082.315-.396.236-.949.394-1.344.08-.475.316-1.027.08-1.344-.474.237-.553.79-.632 1.265-.236.712-.236 1.66-.788 2.292-.079.316-.158.632-.553.712-.552-.237.08-.79.08-1.265.552-.395.315-1.185.394-1.817.079-.712.789-1.185.947-1.897-.237-.237-.553.158-.868.08-.553 1.106-1.736.553-2.524 1.185-.395.474-.947.474-1.263.553-.236-.237-.236-.395 0-.87.316.08.71.08.947-.236.71-.08 1.262-.633 1.814-1.028.473-.395 1.105-.395 1.578-.79.158 0 .473.079.473-.158-.552-.712.552-.316.71-.79.237-.632.947-.474 1.42-.712.158-.079.473-.158.63 0 .631.237.79.949.869 1.502-.08.158-.08.395-.395.316l-.473-.948c-.158.08-.316 0-.395.158-.158.395.316.316.395.553.079.632.63.712.946.949l.474.948c.394.79.868 1.66 1.183 2.529.552 1.185 1.104 2.529 1.341 3.952-.158.553.394.87.71 1.185.71.158 1.499-.158 1.893-.553.631-.158 1.263-.316 1.894-.553.552-.474 1.183-.712 1.735-1.344.079-.316.158-.553.079-1.027-.079-.79-.553-.158-.79-.632-.315-.395.474-.395.159-.79-.474-.87-1.578-.633-2.288-1.107-.552-.474-.71-1.107-1.104-1.66-.316-.316-.71-.237-1.105-.316-.473-.158-.71-.87-1.34-.87-.632-.711-1.578-.948-2.21-1.66-.158-.078-.63-.078-.473-.395-.553-.474-1.263-.87-1.736-1.343-.236-.08-.473 0-.71-.159-.079-.632-.789-.473-1.183-.71-.395-.712-1.42-.396-1.657-1.186-1.025 0-1.735-.632-2.603-.87-.315-.158-.631-.316-.868-.553 0 0-.079-.316.158-.632.63.395 1.262.632 1.893.948.394 0 .789.237 1.104.316 1.105.159 1.894 1.186 2.84 1.58.553-.157.79.475 1.263.633.394.158.63.632 1.025.711.473.474 1.025.633 1.499.949.394.474.789 1.343 1.499 1.185.552.237.788.79 1.183 1.107.552-.158.947.237 1.34.474.08.316.317.474.553.632.316.237.552.395.316.87.316.316.158-.395.552-.316.08 0 .08.079.08.158h.551c.395.316.71.79 1.026 1.265.158.237.394-.237.552.079.552.079.789.711 1.341.711.474-.079 1.025.08 1.499.237.394.08.316.475.552.712.474-.316 1.025-.316 1.657-.237.079 0 .158.079.236.158.474.237 1.184.237 1.184.237.236.08 1.104 0 1.104 0 .316-.079 1.105 0 1.105 0 .788-.158 1.025.08 1.104.237.079.079.158.079.237.237.157-.237.157-.553.473-.553 0 .078.079.078.079.078.078.08.158 0 .158-.078.552 0 .71-.554 1.183-.633.236-.078.394-.395.63-.316.474-.395 1.026 0 1.578-.158.947-.237 1.972-.237 2.682-.948.237-.08.631.079.79-.237.394-.08.788-.159 1.104-.396.552-.316.394-.948.552-1.422v-.396c-.237-.395 0-1.106-.473-1.422-.631.08-.631-.948-1.341-.87-.474.08-.947-.158-1.5-.078-.788.632-2.129.948-2.365 2.134-.237.158-.553.316-.395.711-.079.079-.236.237-.473.158-.316-.158-.158-.632-.237-.87.158-.236.158-.553.158-.79l-.158.08c-.316.237-.63.078-.789-.159-.473.317-.788.712-1.34.87-.395-.158-.79-.316-1.105-.553-.315.079-.552-.237-.789 0-.316-.317-.552-.79-.789-1.186h.08c-.158 0-.316-.158-.237-.237 0 0 .08-.079.158 0-.473-.553-.71-1.185-.71-1.818-.315-.553-.315-1.264-.631-1.817-.789-.87-1.025-1.976-1.42-2.924.079-.316.315-.632.631-.553.552.474 1.262.474 1.815.79.078.158.315.395 0 .474-.316-.158-.868.237-1.105-.316a.433.433 0 0 0-.394.237c0 .158.158.395.394.475.158.553.631 1.027.71 1.58.395.158.158.711.553.87-.158.315.157.553.079.948.316.158.236.632.552.87.236.87.71 1.738 1.499 2.133.158 0 .315-.078.473-.158h-.079s.316-.158.552-.158l-.001-.003z"/><path d="M47.96 6.65s0-.079-.078-.079v-.236c.394-.554.63.158 1.105.079 0-.475-.316-1.027-.868-1.265 0-.316-.553-.395-.631-.79-.316 0-.395-.475-.71-.395-.158.079-.474.158-.474.395.394.79.63 1.817 1.183 2.529 0 0 .79.395.474-.237zM37.627 47.747v4.268l2.603-4.268h-2.603zM36.68 61.261c-.236.554-.473 1.186-.473 1.186-1.263.316-2.998.553-4.26.553-4.733 0-7.81-2.924-7.73-7.192.079-4.584 3.155-7.191 7.81-7.112 1.814 0 3.392.553 3.864.632h.474s-.08.632 0 1.264c.079.712.315 1.423.315 2.055 0 .158-.158-.079-.158-.079-.394-1.66-3.076-2.766-4.575-2.766-3.55 0-5.916 2.292-5.916 6.006.08 3.004 2.366 5.928 5.68 5.928 1.814 0 3.865-.475 5.048-1.976l.316.237s-.158.553-.395 1.264zM55.218 54.78h3.076c.631 0 1.894.08 2.21 0 .236-.078.394-.315.472-.236.08 0 .08.079.08.079v1.975c-.08 0-.08-.08-.395-.237-.394-.079-1.735-.079-2.366-.079h-3.077v4.821h4.339c.63 0 1.34-.079 1.657-.158.236-.158.473-.395.552-.316.078 0 0 .08 0 .08 0 .473-.08.947-.158 1.58v.395h-7.336c-.631 0-.71.079-1.183.079 0 0-.079 0-.158-.08 0-.078.079 0 .236-.394.237-.396.237-1.107.237-1.74v-9.483c0-.632 0-1.343-.237-1.738-.157-.395-.236-.316-.236-.395.079-.08.158-.08.158-.08.473 0 .552.08 1.183.08h7.1v1.817s.078.08 0 .08c-.08.078-.237-.159-.474-.238-.316-.079-1.026-.158-1.578-.158l-4.102-.08v4.427zM6.942 48.853s3.392 7.982 4.97 11.46c.394.948.867 1.817 1.024 1.976.316.395.395.395.395.395h-1.814c-.631 0-.947.08-.947 0 .158-.317.08-.712-.078-1.186-.08-.078-.316-.711-.395-.948-1.104-2.45-3.392-7.903-3.392-7.903-.158-.316-.079-.316-.236 0 0 0-2.288 5.453-3.393 7.903-.079.237-.315.87-.394.948-.158.475-.236.87-.079 1.186 0 .08-.236 0-.788 0H0l.316-.395c.158-.159.63-1.028 1.104-1.976 1.5-3.477 4.97-11.46 4.97-11.46.158-.395.315-.395.552 0zM45.594 50.513v9.958c0 .632 0 1.344-.157 1.739l-.237.395c0 .079.158.079.158.079.473 0 .552-.079 1.262-.079.552 0 .71.079 1.183.079 0 0 .08 0 .08-.079s-.158-.158-.237-.474c-.158-.237-.158-1.028-.158-1.66v-9.958h1.972c.631 0 1.735.079 1.972.158.316.079.394.316.474.237.078 0 .078-.08.078-.08v-1.896h-11.28c0 .553-.08 1.502-.08 1.976 0 0-.078.08 0 .08.08.078.237-.16.474-.238.316-.079 1.5-.237 2.13-.237h2.366zM78.409 55.966v3.794c0 .632-.08 2.133-.237 2.529-.157.316-.236.316-.236.395 0 .079.158 0 .158 0h2.524s.08.079.08 0c.078-.08-.159-.237-.237-.474-.08-.317-.158-1.107-.158-1.66v-4.584s4.18-6.56 4.496-6.639c.473-.079.63-.395.63-.395h-1.735c-.63 0-1.262-.079-1.262 0 .158.316.079.632-.158 1.107-.236.395-2.603 4.11-2.76 4.267-.158-.158-2.604-3.793-2.84-4.267a1.212 1.212 0 0 1-.237-1.107c.079 0-.789.08-1.42.08-.552 0-1.814-.08-1.814-.08s.158 0 .552.395c.394.316 4.654 6.639 4.654 6.639z"/><path d="M90.872 55.65s4.26 6.323 4.654 6.639c.395.395.474.395.474.395s-1.183-.079-1.735-.079c-.631 0-1.5.08-1.5.08.159-.317.08-.712-.157-1.107-.237-.475-2.604-4.11-2.761-4.268-.158.158-2.525 3.794-2.761 4.268-.237.395-.316.79-.158 1.106 0 0-.71-.079-1.34-.079-.553 0-1.816.08-1.816.08s.158 0 .553-.396c.394-.316 4.575-6.48 4.575-6.48s-4.023-6.244-4.575-6.56c-.473-.237-.395-.317-.395-.317h1.657c.631 0 1.499-.078 1.42 0-.08.317-.08.712.236 1.107.237.395 2.524 3.952 2.682 4.11.158-.158 2.446-3.636 2.682-4.03.316-.475.316-.87.237-1.186 0-.079.789 0 1.42 0h1.656s-.316.158-.63.474c-.395.317-4.418 6.244-4.418 6.244zM67.918 56.44s3.392 4.9 3.707 5.295c.316.554 1.026 1.186 2.13 1.186h1.105s-.08-.08-.474-.395c-.71-.633-4.18-5.612-4.18-5.612 1.498-.632 3.154-1.66 3.075-3.95-.079-3.32-2.366-4.19-5.837-4.031H65.55c-.631 0-.868-.08-1.341-.08 0 0-.08 0-.158.08 0 .079.158.158.158.158.315.395.315 2.292.315 2.924v8.456c0 .632 0 1.422-.157 1.818-.158.21-.237.342-.237.395 0 .079.08 0 .08 0h2.523s.08.079.158 0c0-.08-.158-.237-.316-.474-.078-.317-.157-1.107-.157-1.739v-9.958c0-.632.315-.711 1.104-.711 2.682 0 3.865 1.343 3.865 3.319 0 2.134-1.183 3.16-3.47 3.319zM17.275 56.44s3.471 4.9 3.708 5.295c.395.554 1.025 1.186 2.209 1.186h1.025l-.394-.395c-.71-.633-4.181-5.612-4.181-5.612 1.498-.632 3.155-1.66 3.076-3.95-.158-3.32-2.366-4.19-5.837-4.031h-1.893c-.71 0-.868-.08-1.42-.08 0 0-.079 0-.079.08-.079.079.158.158.158.158.237.395.237 2.292.237 2.924 0 1.264.079 7.508.079 8.456 0 .632-.08 1.422-.237 1.818-.158.316-.236.316-.236.395.079.079.158 0 .158 0h2.445s.158.079.158 0c0-.08-.158-.237-.236-.474-.158-.317-.158-1.107-.158-1.739v-9.958c0-.632.316-.711 1.104-.711 2.603 0 3.787 1.343 3.865 3.319 0 2.134-1.183 3.16-3.55 3.319zM36.128 51.777s.631 1.107.474.08c-.237-1.66.236.87.236.87l-.316.078-.394-1.028z"/></g><defs><clipPath id="a"><path fill="#fff" d="M0 0h96v63H0z"/></clipPath></defs></svg>