<svg width="160" height="68" fill="none" xmlns="http://www.w3.org/2000/svg"><g clip-path="url(#a)"><mask id="b" style="mask-type:luminance" maskUnits="userSpaceOnUse" x="0" y="0" width="120" height="50"><path d="M0 0h120v50H0V0z" fill="#fff"/><path d="M4.986 4.986h110.028v39.981H4.986V4.986z" fill="#000"/></mask><g mask="url(#b)"><path d="M0 0h120v50H0V0z" fill="#0B0500"/></g><path d="M11.055 18.627v12.746h3.386v-5.597h7.292v5.597h3.434V18.626h-3.434v4.61H14.44v-4.61h-3.386zM35.939 28.692c2.164 0 3.669-.846 3.669-2.634v-7.431h3.434v7.949c0 3.292-3.34 5.033-7.15 5.033-3.81 0-6.962-1.74-6.962-5.033v-7.95h3.434v7.432c-.047 1.788 1.411 2.634 3.575 2.634zM63.222 18.627v2.68h4.893v10.066h3.433V21.307h4.893v-2.68H63.222zm28.083 0v2.68h-9.078v1.93h7.62v2.586h-7.62v2.87h9.078v2.68H78.793V18.626h12.512zM103.912 23.942h-6.115v-2.823h6.115c1.647.047 1.647 2.823 0 2.823zm1.505 2.492c2.07-.282 3.105-1.88 3.105-4.045 0-2.116-1.787-3.762-3.904-3.762H94.316v12.746h3.434V26.53h3.481l3.857 4.844h4.281l-3.952-4.939zM46.758 18.627h3.67l7.008 8.701v-8.701h3.434v12.746H56.92l-6.727-8.325v8.325h-3.434V18.626z" fill="#0B0500"/></g><defs><clipPath id="a"><path fill="#fff" d="M0 0h120v50H0z"/></clipPath></defs></svg>