<svg width="160" height="68" fill="none" xmlns="http://www.w3.org/2000/svg"><g clip-path="url(#a)" fill="#0B0500"><path d="m35.267 35.813-.039-9.665 9.128-3.432-9.192-3.052-.192-9.522-5.577 7.683-9.121-2.851 5.295 8.065-5.168 8.08 9.002-3.025 5.864 7.72v-.001z"/><path d="M36.407 45.972h16.35L73.246 23 52.657 0h-16.19l19.256 22.966-19.316 23.006zM0 58.337c0-2.986 2.49-5.921 5.892-5.921 2.318 0 4.919 2.649 4.919 2.649l-2.818 1.662S7.527 55.48 5.79 55.48c-1.767 0-2.806 1.47-2.818 2.805-.014 1.492 1.192 2.805 2.715 2.805 1.195 0 2.46-1.299 2.46-1.299l2.408 1.766S8.753 63.79 5.738 63.79C2.724 63.79 0 61.944 0 58.337zM17.57 52.567a5.73 5.73 0 0 0-5.735 5.721C11.835 61.443 14.4 64 17.57 64c3.17 0 5.744-2.556 5.744-5.712 0-3.155-2.575-5.721-5.744-5.721zm0 2.86a2.869 2.869 0 0 1 2.871 2.861 2.86 2.86 0 0 1-2.872 2.851 2.852 2.852 0 0 1-2.862-2.85 2.86 2.86 0 0 1 2.862-2.862zM25.467 52.728v10.696h2.762v-5.78l4.557 5.78h2.722V52.728h-2.772v6.25l-4.507-6.25h-2.762zM37.762 52.728l3.73 10.696H45.6l3.73-10.696h-3.022l-2.762 8.492-2.762-8.492h-3.022zM51.314 52.728v10.696H59.8v-2.467h-5.724v-1.789h5.145v-2.184h-5.145v-1.708H59.8V52.73h-8.486zM85.514 52.728v10.696H94v-2.467h-5.724v-1.789h5.146v-2.184h-5.146v-1.708H94V52.73h-8.486zM62.921 52.93v10.544h2.453V59.32h1.406l2.154 4.154h3.161l-2.134-4.508c2.775-1.687 2.225-5.217-.867-6.035H62.92zm2.403 2.548h2.832c.984 0 .92 1.547 0 1.547h-2.832v-1.547zM73.57 61.998c.108.66 2.679 1.91 5.216 1.91 2.33 0 4.203-1.135 4.203-3.386 0-2.768-3.189-3.41-3.189-3.41s-2.648-.037-2.717-1.284c-.032-.587.775-.919 1.486-.919 1.163 0 2.463 1.176 2.463 1.176l1.848-2.02s-2.338-1.873-4.311-1.873c-1.885 0-4.565 1.25-4.565 3.856 0 2.216 3.102 3.236 3.102 3.236s3.274.353 3.274 1.391c0 .707-1.187.919-1.884.919-1.691 0-3.116-1.506-3.116-1.506l-1.811 1.91z"/></g><defs><clipPath id="a"><path fill="#fff" d="M0 0h94v64H0z"/></clipPath></defs></svg>