<svg width="160" height="68" fill="none" xmlns="http://www.w3.org/2000/svg"><path fill-rule="evenodd" clip-rule="evenodd" d="M12.98 18.674a.163.163 0 0 1 .13-.166.163.163 0 0 1 .173.246 46.612 46.612 0 0 0-2.126 7.315c-.5 2.908.127 5.746 1.809 8.168a11.34 11.34 0 0 0 11.986 4.347c11.977-3.024 22.698-6.429 34.226-10.876l-7.418-.019-.643-9.506-3.311 9.503-6.764.022L50.59.05l6.39-.04-1.834 5.531L59.992 0 80.86.014l-1.585 4.407-6.36.02-1.646 5.038 6.3.022-2.036 5.879-6.463.053-1.926 6.046 7.286.065-.545 2.301 31.674-9.013a.344.344 0 0 1 .419.21.34.34 0 0 1-.176.433L27.759 50.87a47.048 47.048 0 0 1-11.128 3.466 21.29 21.29 0 0 1-8.488-.353c-2.555-.623-4.672-2.063-6.19-4.211C.438 47.624-.21 45.145.06 42.529c1.059-6.773 3.583-12.702 7.733-18.156a24.51 24.51 0 0 1 5.187-5.7zm20.307 9.018 6.929.016L49.739 0 42.78.046l-9.493 27.646zm-7.531.02 6.685-.023L41.955.045 35.536.033l-3.747 9.17.309-9.147-7.361-.011L15.04 27.7l6.6.002 4.195-10.438-.08 10.447zm33.054-3.76-.914-13.098 8.884-9.617-7.97 22.715z" fill="#0B0500"/></svg>